HIERARCHY
ROOT Hips
{
    OFFSET 0.000000 0.000000 0.000000
    CHANNELS 6 Xposition Yposition Zposition Zrotation Yrotation Xrotation
    JOINT LeftUpLeg
    {
        OFFSET 1.363060 -1.794630 0.839290
        CHANNELS 3 Zrotation Yrotation Xrotation
        JOINT LeftLeg
        {
            OFFSET 2.448110 -6.726130 0.000000
            CHANNELS 3 Zrotation Yrotation Xrotation
            JOINT LeftFoot
            {
                OFFSET 2.562200 -7.039589 0.000000
                CHANNELS 3 Zrotation Yrotation Xrotation
                JOINT LeftToeBase
                {
                    OFFSET 0.157640 -0.433110 2.322550
                    CHANNELS 3 Zrotation Yrotation Xrotation
                    End Site
                    {
                        OFFSET 0.000000 0.000000 0.000000
                    }
                }
            }
        }
    }
    JOINT RightUpLeg
    {
        OFFSET -1.305520 -1.794630 0.839290
        CHANNELS 3 Zrotation Yrotation Xrotation
        JOINT RightLeg
        {
            OFFSET -2.542530 -6.985549 0.000000
            CHANNELS 3 Zrotation Yrotation Xrotation
            JOINT RightFoot
            {
                OFFSET -2.568260 -7.056230 0.000000
                CHANNELS 3 Zrotation Yrotation Xrotation
                JOINT RightToeBase
                {
                    OFFSET -0.164730 -0.452590 2.363150
                    CHANNELS 3 Zrotation Yrotation Xrotation
                    End Site
                    {
                        OFFSET 0.000000 0.000000 0.000000
                    }
                }
            }
        }
    }
    JOINT Spine
    {
        OFFSET 0.028270 2.035590 -0.193380
        CHANNELS 3 Zrotation Yrotation Xrotation
        JOINT Spine1
        {
            OFFSET 0.056720 2.048850 -0.042750
            CHANNELS 3 Zrotation Yrotation Xrotation
            JOINT Neck1
            {
                OFFSET -0.054170 1.746240 0.172020
                CHANNELS 3 Zrotation Yrotation Xrotation
                JOINT Head
                {
                    OFFSET 0.104070 1.761360 -0.123970
                    CHANNELS 3 Zrotation Yrotation Xrotation
                    End Site
                    {
                        OFFSET 0.000000 0.000000 0.000000
                    }
                }
            }
            JOINT LeftShoulder
            {
                OFFSET 0.000000 0.000000 0.000000
                CHANNELS 3 Zrotation Yrotation Xrotation
                JOINT LeftArm
                {
                    OFFSET 3.362410 1.200890 -0.311210
                    CHANNELS 3 Zrotation Yrotation Xrotation
                    JOINT LeftForeArm
                    {
                        OFFSET 4.983000 -0.000000 -0.000000
                        CHANNELS 3 Zrotation Yrotation Xrotation
                        JOINT LeftHand
                        {
                            OFFSET 3.483560 -0.000000 -0.000000
                            CHANNELS 3 Zrotation Yrotation Xrotation
                            End Site
                            {
                                OFFSET 0.000000 0.000000 0.000000
                            }
                        }
                    }
                }
            }
            JOINT RightShoulder
            {
                OFFSET 0.000000 0.000000 0.000000
                CHANNELS 3 Zrotation Yrotation Xrotation
                JOINT RightArm
                {
                    OFFSET -3.136600 1.374050 -0.404650
                    CHANNELS 3 Zrotation Yrotation Xrotation
                    JOINT RightForeArm
                    {
                        OFFSET -5.241900 -0.000000 -0.000000
                        CHANNELS 3 Zrotation Yrotation Xrotation
                        JOINT RightHand
                        {
                            OFFSET -3.444170 -0.000000 -0.000000
                            CHANNELS 3 Zrotation Yrotation Xrotation
                            End Site
                            {
                                OFFSET 0.000000 0.000000 0.000000
                            }
                        }
                    }
                }
            }
        }
    }
}
MOTION
Frames: 13
Frame Time: 0.016667
22.833204 19.027485 -5.855597 0.754154 3.997145 9.866001 -15.596708 1.813026 -23.911322 -12.914501 -26.115656 38.385582 -16.650869 41.562263 -1.784255 -0.762941 -1.043337 -4.455739 12.548038 -2.063017 -24.842173 9.975411 14.742622 36.804634 12.711143 -40.588612 -12.094164 -0.011785 0.001021 -3.393647 2.544941 0.203094 3.440282 -1.277906 0.128686 -1.338861 -4.887659 -4.721477 27.777321 -8.917897 0.049557 5.839002 -3.524946 -7.001555 -0.203291 -82.978409 -18.052160 52.381264 15.873755 -27.155174 -13.037040 -0.300297 -3.340230 -3.028290 7.317836 9.246847 3.713411 72.861794 13.162834 39.625664 -6.147344 14.990337 -4.750799 -4.829236 1.534975 -3.049493 
22.844629 18.917093 -5.791689 0.747477 3.637830 10.539371 -14.925633 -0.309372 -23.478512 -11.697766 -25.505468 36.293701 -20.012022 39.260288 -3.478553 -0.840425 -1.626783 -4.659349 11.671271 -0.281213 -24.474472 7.665321 12.206654 33.200405 12.763030 -39.940388 -8.496273 -0.045935 -0.129896 -3.115808 2.683191 0.417020 2.941957 -1.257705 0.227093 -1.766515 -4.315714 -4.564371 27.062950 -10.071376 0.344183 4.376123 -2.036395 -6.634045 -0.342211 -84.295425 -17.112623 51.536690 18.438679 -32.247139 -15.782515 0.298743 -3.301816 -2.323261 5.911910 8.920461 3.165720 72.220200 12.553031 38.508129 -4.250059 17.833744 -0.003493 -4.728400 3.009240 1.187422 
22.860235 18.778702 -5.737450 0.884533 3.588660 10.680032 -14.195495 -2.690253 -22.574482 -11.003948 -24.441278 34.553177 -23.352854 37.812954 -4.543965 -0.837338 -1.455136 -4.740564 11.192418 -0.196018 -24.364481 6.262350 11.005679 31.388958 11.840311 -39.345245 -4.043494 -0.024646 -0.046993 -3.426491 2.749391 0.308058 2.894180 -1.218158 0.168058 -2.034023 -4.338122 -4.488454 25.978851 -9.245136 0.348099 4.407511 -0.692116 -6.494355 -0.544146 -85.440041 -16.000975 51.723766 22.649414 -36.674175 -20.656982 1.002670 -3.401113 -2.517314 4.796879 8.781206 2.962256 71.106911 12.411307 37.449219 -2.208404 20.456251 4.740897 -5.405814 3.871385 5.150218 
22.872522 18.586590 -5.688168 0.910573 3.792563 10.914874 -13.708945 -4.141084 -22.490318 -11.513252 -23.928362 34.368034 -22.867123 37.757080 -3.747189 -0.605266 -1.164315 -3.263566 10.479893 0.248558 -24.270016 7.784312 13.516826 33.044590 16.937229 -40.743752 -8.212414 -0.000302 0.019156 -1.601434 2.916493 0.137454 2.718907 -1.111531 0.075362 -2.179033 -3.630052 -4.308518 25.007139 -9.937420 0.593050 4.061257 0.395776 -6.542288 -0.620417 -86.364418 -15.084682 52.325344 27.600866 -40.303833 -26.964054 0.869101 -3.295426 -3.256837 3.866630 8.597804 2.859053 69.734184 12.491502 36.752403 -0.393485 22.923182 8.781839 -6.940852 4.326786 8.260015 
22.882217 18.343283 -5.649174 0.820583 4.178459 10.994158 -13.979265 -3.714287 -23.237829 -11.859771 -22.331665 35.558636 -17.713781 35.456486 -4.586330 -0.491241 -2.151133 -1.694045 9.883464 0.698979 -24.314342 12.257274 18.158466 38.520035 23.927256 -42.663784 -20.314192 0.074824 0.279116 -1.331795 3.190218 -0.203335 2.730876 -1.040272 -0.102789 -2.360386 -3.383891 -4.031235 24.202969 -8.993796 0.678730 3.397395 1.477331 -6.729454 -0.721054 -87.102325 -14.198933 52.774139 33.297878 -43.230331 -34.257759 1.124230 -3.199744 -4.362856 2.984933 8.585915 2.748121 68.468933 12.681929 36.511997 1.044599 24.942484 11.964415 -8.597637 4.568488 10.537645 
22.888283 18.058962 -5.606378 0.866372 4.092081 10.800631 -14.002574 -2.770266 -23.968309 -17.803858 -26.505018 42.756924 -17.636353 36.940331 -13.348330 -0.254540 -1.567953 -0.440744 9.334767 1.322525 -24.257278 16.594175 20.746988 43.615570 24.700312 -43.176502 -27.875257 -0.189199 -0.642030 -0.778219 3.186814 -0.214824 2.796098 -0.880515 -0.099361 -2.512116 -2.429281 -3.850499 23.429115 -9.901237 0.956068 4.036789 2.180359 -7.306582 -0.769027 -87.473602 -13.383049 52.677811 38.545334 -45.503395 -40.981876 1.411615 -2.933424 -5.329525 2.398674 8.915421 2.641446 66.989685 12.428226 36.249195 2.242819 26.637604 14.186984 -9.385751 4.519133 12.030899 
22.894539 17.742489 -5.571573 0.793350 4.211663 10.293345 -15.110812 0.379473 -25.552189 -22.306244 -29.130207 49.303528 -16.394464 38.197357 -17.165890 -0.340077 -2.351551 -0.375914 9.559880 0.273896 -24.600300 20.272161 22.665461 48.522331 24.198267 -43.485931 -33.212460 -0.230840 -0.782400 -0.548516 3.339836 -0.507081 3.057242 -0.752954 -0.241363 -2.658587 -2.606945 -3.899539 23.428478 -9.040674 0.699011 3.113906 2.714960 -7.771966 -0.938773 -87.597260 -12.799457 52.164459 43.160896 -47.162674 -47.318897 1.952390 -2.555368 -6.838493 2.163190 9.253204 2.686774 65.410896 12.622870 37.327488 2.669035 27.671688 14.656091 -10.237660 4.495869 12.159741 
22.910139 17.421247 -5.536865 0.735851 4.478318 9.247123 -17.812819 4.526359 -28.597937 -36.371475 -34.706722 67.853775 -14.366557 46.636551 -25.072783 -0.227113 -2.230862 0.365995 9.818625 -1.261762 -26.241905 26.414204 23.080166 56.722916 24.406729 -45.956699 -39.568649 -0.010027 -0.018094 -1.364883 3.638100 -0.772262 3.767984 -0.756602 -0.372440 -2.843652 -2.052991 -3.654740 23.394209 -8.988631 0.941660 3.266264 2.511318 -8.442122 -1.032048 -87.302986 -12.593581 52.146564 46.331490 -47.710144 -50.750923 1.244543 -2.410706 -7.746647 2.395998 9.581203 2.574056 63.634796 12.600920 38.138355 3.034491 27.843576 14.769789 -10.521286 4.820752 11.932850 
22.929527 17.223969 -5.566447 0.809800 4.350210 8.257936 -18.771526 5.325017 -30.235065 -35.304050 -31.725519 70.051102 -13.880321 43.979549 -26.618372 -0.005611 -2.909302 2.786885 9.961105 -2.716411 -28.278584 30.355089 22.178423 62.855915 23.420418 -47.042828 -41.633377 -0.216152 -0.722099 0.352661 3.918274 -1.074854 5.299025 -0.830287 -0.535926 -2.946184 -2.643453 -3.738749 22.966190 -8.113586 0.926028 3.678338 0.302223 -8.981420 -1.766273 -85.360291 -13.197417 52.018764 46.709652 -46.793549 -50.437977 2.416146 -2.900854 -8.347241 4.868288 9.881484 3.058350 60.216568 14.395418 38.541920 3.411203 25.915159 14.841258 -10.448344 5.418122 11.679496 
22.933550 17.210020 -5.589551 1.054106 3.872585 7.661875 -17.834591 3.217949 -29.158747 -34.345581 -29.653297 68.476189 -14.420068 43.841957 -27.617472 0.022291 -2.560316 2.603539 10.145678 -3.542718 -29.073622 34.464417 23.304855 67.653419 24.498413 -49.706612 -44.610123 -0.151723 -0.507454 0.514760 3.984881 -0.921304 6.155861 -1.084116 -0.500424 -2.165314 -2.573167 -3.917462 23.133816 -8.638254 0.821056 2.392375 -2.692078 -8.841301 -1.459001 -82.492210 -16.620447 52.097431 42.400368 -44.952591 -44.863094 5.725808 -4.347795 -8.202283 7.744751 9.585557 3.842239 56.601109 17.302595 34.820808 5.741143 22.271513 17.212727 -9.380886 6.569713 13.216172 
22.933786 17.207985 -5.588974 1.179327 3.310806 6.979231 -17.520992 2.386744 -27.861673 -36.534290 -29.971731 69.962845 -15.194171 46.983696 -29.698162 -0.003281 -2.543299 2.388705 9.943765 -3.428010 -28.512537 40.775211 25.056770 72.799004 27.344276 -55.085247 -50.039375 -0.155485 -0.519214 0.664039 4.181978 -0.717292 6.580256 -1.583734 -0.455437 -1.369555 -2.806105 -4.468248 23.759224 -7.881957 0.367634 3.714231 -5.278046 -9.160446 -0.959599 -79.517197 -20.173622 49.305382 31.140509 -42.970997 -32.022087 6.560375 -5.914355 -5.558760 9.876210 9.888247 4.507730 54.577129 18.978203 28.743359 6.987669 16.598242 21.268127 -4.857479 6.232199 18.131496 
22.915836 17.208868 -5.557208 1.379828 2.304879 6.371192 -17.176760 2.146379 -26.478949 -34.184464 -28.932604 67.100990 -15.425486 45.917728 -29.224323 0.020012 -2.527834 2.549658 10.433626 -4.426310 -28.292761 43.943024 26.491308 76.392632 28.597080 -56.735878 -52.231422 -0.161349 -0.538361 0.691856 4.134869 -0.248412 6.872252 -2.008948 -0.187179 -0.952612 -2.280947 -5.188626 24.782492 -10.348831 0.065042 4.588916 -7.309202 -9.560719 -0.465511 -77.067390 -23.100121 43.644585 17.598747 -38.403133 -14.358287 8.336132 -7.676801 -1.654582 11.204463 10.347862 4.755069 54.234825 19.471811 23.723774 5.338794 10.731111 21.583771 -3.248766 4.191658 19.914486 
22.903723 17.227839 -5.504490 1.504337 1.132021 5.892320 -17.064329 2.854945 -25.433500 -31.184629 -27.977524 63.899452 -15.712005 43.639149 -28.067591 0.003420 -2.545784 2.442767 10.046703 -3.345417 -27.066603 42.539783 26.506746 74.833992 27.810476 -55.631969 -50.865730 -0.172555 -0.575814 0.590470 3.892469 0.005424 6.848842 -2.247254 0.011805 -0.577889 -3.634243 -5.450352 26.949249 -7.582304 -0.573399 2.920939 -8.891473 -9.796454 0.071731 -75.392090 -24.949919 39.417366 9.156689 -30.162378 -2.468120 8.895066 -7.563887 1.885048 12.572989 11.127863 5.165864 54.622070 19.466743 23.476055 0.898206 5.569994 16.478706 -3.027718 0.547661 16.196680 
